<svg id="Capa_1" data-name="Capa 1" xmlns="http://www.w3.org/2000/svg" viewBox="0 0 24.08 24"><path d="M11.74,0a1.46,1.46,0,0,1,.51,0L23,1.9a1.1,1.1,0,0,1,0,2.2l-4.11.73V7.46c0,3.32-3.07,6-6.85,6s-6.86-2.68-6.86-6V4.79L2.59,4.34V7.46l.84,3.67a.7.7,0,0,1-.18.63.9.9,0,0,1-.66.27H.87a1,1,0,0,1-.66-.27A.7.7,0,0,1,0,11.13L.87,7.46V4.06A1.13,1.13,0,0,1,0,3,1.17,1.17,0,0,1,1,1.9ZM6,15.36a1.72,1.72,0,0,1,1.58.4l3.8,3.54a.93.93,0,0,0,1.25,0l3.8-3.54a1.72,1.72,0,0,1,1.58-.4c3.48,1,6,3.83,6,7.21A1.54,1.54,0,0,1,22.34,24H1.64A1.55,1.55,0,0,1,0,22.57c0-3.38,2.52-6.23,6-7.21Z" transform="translate(0 -0.01)" fill="#818181"/></svg>